HIERARCHY
ROOT Hips
{
	OFFSET 0.00 86.18 0.00
	CHANNELS 6 Xposition Yposition Zposition Yrotation Xrotation Zrotation
	JOINT RightUpLeg
	{
		OFFSET -9.25 0.00 0.00
		CHANNELS 6 Xposition Yposition Zposition Yrotation Xrotation Zrotation
		JOINT RightLeg
		{
			OFFSET 0.00 -42.00 0.00
			CHANNELS 6 Xposition Yposition Zposition Yrotation Xrotation Zrotation
			JOINT RightFoot
			{
				OFFSET 0.00 -42.00 0.00
				CHANNELS 6 Xposition Yposition Zposition Yrotation Xrotation Zrotation
				End Site
				{
					OFFSET 0 -1.14 11.36
				}
			}
		}
	}
	JOINT LeftUpLeg
	{
		OFFSET 9.25 0.00 0.00
		CHANNELS 6 Xposition Yposition Zposition Yrotation Xrotation Zrotation
		JOINT LeftLeg
		{
			OFFSET 0.00 -42.00 0.00
			CHANNELS 6 Xposition Yposition Zposition Yrotation Xrotation Zrotation
			JOINT LeftFoot
			{
				OFFSET 0.00 -42.00 0.00
				CHANNELS 6 Xposition Yposition Zposition Yrotation Xrotation Zrotation
				End Site
				{
					OFFSET 0 -1.14 11.36
				}
			}
		}
	}
	JOINT Spine
	{
		OFFSET 0.00 10.46 0.00
		CHANNELS 6 Xposition Yposition Zposition Yrotation Xrotation Zrotation
		JOINT Spine1
		{
			OFFSET 0.00 9.75 0.00
			CHANNELS 6 Xposition Yposition Zposition Yrotation Xrotation Zrotation
			JOINT Spine2
			{
				OFFSET 0.00 10.15 0.00
				CHANNELS 6 Xposition Yposition Zposition Yrotation Xrotation Zrotation
				JOINT Spine3
				{
					OFFSET 0.00 9.75 0.00
					CHANNELS 6 Xposition Yposition Zposition Yrotation Xrotation Zrotation
			 		JOINT Neck
					{
						OFFSET 0.00 10.42 0.00
						CHANNELS 6 Xposition Yposition Zposition Yrotation Xrotation Zrotation
						JOINT Head
						{
							OFFSET 0.00 9.50 0.00
							CHANNELS 6 Xposition Yposition Zposition Yrotation Xrotation Zrotation
							End Site
							{
								OFFSET 0 16.00 0
							}
						}    
					} 
					JOINT RightShoulder
	 					{
						OFFSET -3.20 6.94 0.00
						CHANNELS 6 Xposition Yposition Zposition Yrotation Xrotation Zrotation
						JOINT RightArm
						{
							OFFSET -16.00 0.00 0.00
							CHANNELS 6 Xposition Yposition Zposition Yrotation Xrotation Zrotation
							JOINT RightForeArm
							{
								OFFSET -26.50 0.00 0.00
								CHANNELS 6 Xposition Yposition Zposition Yrotation Xrotation Zrotation
								JOINT RightHand
								{
									OFFSET -26.00 0.00 0.00
									CHANNELS 6 Xposition Yposition Zposition Yrotation Xrotation Zrotation
									End Site
									{
										OFFSET -17.50 0 0
									}
								}
							}
						}	
					}
					JOINT LeftShoulder
					{
						OFFSET 3.20 6.94 0.00
						CHANNELS 6 Xposition Yposition Zposition Yrotation Xrotation Zrotation
						JOINT LeftArm
						{
							OFFSET 16.00 0.00 0.00
							CHANNELS 6 Xposition Yposition Zposition Yrotation Xrotation Zrotation
							JOINT LeftForeArm
							{
								OFFSET 26.50 0.00 0.00
								CHANNELS 6 Xposition Yposition Zposition Yrotation Xrotation Zrotation
								JOINT LeftHand
								{
									OFFSET 26.00 0.00 0.00
									CHANNELS 6 Xposition Yposition Zposition Yrotation Xrotation Zrotation
									End Site
									{
										OFFSET 17.50 0 0
									}
								}
							}
						}
					}     			
				}
			}
		} 
	} 
}
MOTION
Frames: 14
Frame Time: 0.010
-0.12 92.69 -0.05 83.67 -0.30 0.80 -9.18 0.01 0.02 -14.42 1.98 -4.73 0.12 -42.00 0.03 -1.17 2.62 -1.36 0.01 -41.71 -0.01 -8.74 -1.90 2.44 9.24 -0.01 -0.03 11.52 2.00 3.01 0.02 -42.00 -0.00 -2.48 3.46 0.21 -0.01 -42.30 0.23 7.47 -5.08 -0.38 0.02 10.46 0.02 2.45 2.10 0.19 0.00 9.75 0.02 0.61 0.54 0.04 0.01 10.15 -0.00 1.02 0.91 0.07 0.01 9.75 -0.01 0.05 -0.75 -0.01 0.02 10.41 -0.00 0.05 -0.75 -0.01 0.02 9.50 0.02 1.00 -13.70 -0.21 -3.19 6.95 -0.02 -7.47 1.81 6.74 -16.00 0.01 0.01 15.00 2.57 75.89 -26.50 0.02 0.03 4.97 -9.53 0.41 -26.00 0.00 0.02 3.81 6.15 -1.66 3.21 6.94 -0.02 -6.17 2.47 0.85 16.01 -0.01 0.00 -6.90 -1.89 -85.71 26.50 0.02 0.01 -6.12 3.81 -0.41 26.00 0.01 0.02 -2.11 6.60 1.24 
-0.12 92.69 -0.05 83.67 -0.30 0.80 -9.18 0.01 0.02 -14.42 1.98 -4.73 0.12 -42.00 0.03 -1.17 2.62 -1.36 0.01 -41.71 -0.01 -8.74 -1.90 2.44 9.24 -0.01 -0.03 11.52 2.00 3.01 0.02 -42.00 -0.00 -2.48 3.46 0.21 -0.01 -42.30 0.23 7.47 -5.08 -0.38 0.02 10.46 0.02 2.45 2.10 0.19 0.00 9.75 0.02 0.61 0.54 0.04 0.01 10.15 -0.00 1.02 0.91 0.07 0.01 9.75 -0.01 0.05 -0.75 -0.01 0.01 10.41 -0.00 0.05 -0.75 -0.01 0.02 9.50 0.02 1.00 -13.70 -0.21 -3.19 6.95 -0.03 -7.47 1.81 6.74 -16.00 0.01 0.01 15.00 2.57 75.89 -26.50 0.02 0.03 4.97 -9.53 0.41 -26.00 0.00 0.02 3.81 6.15 -1.66 3.21 6.94 -0.02 -6.17 2.47 0.85 16.01 -0.01 0.00 -6.90 -1.89 -85.71 26.50 0.02 0.01 -6.12 3.81 -0.41 26.00 0.01 0.02 -2.11 6.60 1.24 
-0.13 92.69 -0.05 83.67 -0.30 0.80 -9.18 0.01 0.02 -14.42 1.98 -4.73 0.12 -42.00 0.03 -1.17 2.62 -1.36 0.01 -41.71 -0.01 -8.74 -1.90 2.44 9.24 -0.01 -0.03 11.52 2.00 3.01 0.02 -42.00 -0.00 -2.48 3.46 0.21 -0.01 -42.30 0.24 7.47 -5.08 -0.38 0.02 10.46 0.02 2.45 2.10 0.19 0.00 9.75 0.02 0.61 0.54 0.04 0.01 10.15 -0.00 1.02 0.91 0.07 0.01 9.75 -0.01 0.05 -0.75 -0.01 0.01 10.41 -0.00 0.05 -0.75 -0.01 0.02 9.50 0.02 1.00 -13.70 -0.21 -3.19 6.95 -0.02 -7.47 1.81 6.74 -16.00 0.01 0.01 15.00 2.57 75.89 -26.50 0.01 0.03 4.97 -9.53 0.41 -26.00 -0.00 0.02 3.81 6.15 -1.66 3.21 6.94 -0.02 -6.17 2.47 0.85 16.01 -0.01 0.00 -6.90 -1.89 -85.71 26.50 0.02 0.01 -6.12 3.81 -0.41 26.00 0.01 0.02 -2.11 6.60 1.24 
-0.13 92.69 -0.05 83.67 -0.30 0.80 -9.18 0.01 0.02 -14.42 1.98 -4.73 0.12 -42.00 0.02 -1.17 2.62 -1.36 0.01 -41.71 -0.01 -8.74 -1.90 2.44 9.24 -0.01 -0.03 11.52 2.00 3.01 0.02 -42.00 -0.00 -2.48 3.46 0.21 -0.00 -42.30 0.24 7.47 -5.08 -0.38 0.02 10.46 0.02 2.45 2.10 0.19 0.00 9.75 0.02 0.61 0.54 0.04 0.01 10.15 -0.00 1.02 0.91 0.07 0.01 9.75 -0.01 0.05 -0.75 -0.01 0.01 10.41 -0.00 0.05 -0.75 -0.01 0.02 9.50 0.02 1.00 -13.70 -0.21 -3.19 6.95 -0.02 -7.47 1.81 6.74 -16.00 0.01 0.01 15.00 2.57 75.89 -26.50 0.01 0.03 4.97 -9.53 0.41 -26.00 -0.00 0.02 3.81 6.15 -1.66 3.21 6.94 -0.02 -6.17 2.47 0.85 16.01 -0.01 0.00 -6.90 -1.89 -85.71 26.50 0.02 0.00 -6.12 3.81 -0.41 26.00 0.01 0.02 -2.11 6.60 1.24 
-0.13 92.69 -0.05 83.67 -0.30 0.80 -9.19 0.01 0.01 -14.44 1.99 -4.72 0.12 -42.00 0.03 -1.16 2.61 -1.39 0.02 -41.71 0.00 -8.73 -1.90 2.44 9.25 -0.01 -0.02 11.57 2.02 3.01 0.02 -42.00 0.00 -2.53 3.45 0.23 0.00 -42.30 0.25 7.46 -5.10 -0.38 0.02 10.46 0.02 2.46 2.10 0.18 0.00 9.75 0.02 0.62 0.54 0.04 0.01 10.15 -0.00 1.03 0.91 0.07 0.01 9.75 -0.01 0.05 -0.75 -0.00 0.01 10.41 -0.00 0.05 -0.75 -0.00 0.02 9.50 0.02 0.99 -13.71 -0.20 -3.19 6.95 -0.02 -7.47 1.82 6.75 -16.00 0.01 0.01 14.99 2.57 75.90 -26.50 0.02 0.03 4.96 -9.54 0.42 -26.00 0.00 0.02 3.82 6.17 -1.67 3.21 6.94 -0.02 -6.18 2.46 0.86 16.01 -0.01 -0.00 -6.89 -1.90 -85.71 26.50 0.02 -0.00 -6.10 3.83 -0.41 26.00 0.01 0.02 -2.09 6.60 1.23 
-0.14 92.69 -0.04 83.67 -0.31 0.80 -9.19 0.01 0.02 -14.45 2.01 -4.71 0.11 -42.00 0.03 -1.15 2.60 -1.39 0.02 -41.70 0.02 -8.72 -1.90 2.44 9.25 -0.01 -0.02 11.59 2.02 3.00 0.02 -42.00 -0.00 -2.55 3.45 0.24 0.01 -42.30 0.26 7.48 -5.10 -0.38 0.02 10.46 0.02 2.46 2.10 0.18 0.00 9.75 0.02 0.62 0.54 0.04 0.01 10.15 -0.00 1.03 0.91 0.06 0.01 9.75 -0.01 0.05 -0.75 -0.00 0.01 10.41 -0.00 0.05 -0.75 -0.00 0.02 9.50 0.02 0.98 -13.70 -0.19 -3.19 6.95 -0.02 -7.46 1.82 6.75 -16.00 0.01 0.01 15.01 2.56 75.90 -26.50 0.02 0.03 4.94 -9.56 0.43 -26.00 0.00 0.02 3.82 6.16 -1.68 3.21 6.94 -0.02 -6.17 2.49 0.85 16.01 -0.00 -0.00 -6.89 -1.91 -85.70 26.50 0.02 -0.00 -6.08 3.84 -0.40 26.00 0.01 0.02 -2.09 6.59 1.22 
-0.15 92.69 -0.04 83.68 -0.30 0.80 -9.19 0.01 0.01 -14.43 2.00 -4.71 0.11 -42.00 0.03 -1.19 2.62 -1.38 0.03 -41.70 0.03 -8.72 -1.90 2.43 9.25 -0.01 -0.02 11.60 2.02 3.01 0.01 -42.00 -0.00 -2.57 3.44 0.23 0.03 -42.30 0.27 7.46 -5.10 -0.38 0.02 10.46 0.02 2.46 2.10 0.17 0.00 9.75 0.03 0.62 0.54 0.04 0.01 10.15 -0.00 1.03 0.91 0.06 0.00 9.75 -0.00 0.05 -0.75 -0.00 0.00 10.41 0.01 0.05 -0.75 -0.00 0.01 9.50 0.03 0.97 -13.70 -0.18 -3.19 6.95 -0.02 -7.45 1.83 6.76 -16.00 0.01 0.01 15.02 2.56 75.90 -26.50 0.02 0.03 4.94 -9.59 0.43 -26.00 0.00 0.02 3.83 6.13 -1.65 3.21 6.94 -0.01 -6.16 2.49 0.85 16.01 -0.00 -0.01 -6.90 -1.93 -85.69 26.50 0.02 -0.01 -6.07 3.85 -0.39 26.00 0.02 0.01 -2.08 6.59 1.21 
-0.15 92.69 -0.04 83.67 -0.30 0.80 -9.19 0.01 0.02 -14.41 2.01 -4.72 0.11 -42.00 0.03 -1.20 2.60 -1.37 0.05 -41.70 0.03 -8.74 -1.90 2.43 9.25 -0.01 -0.02 11.62 2.01 3.00 0.01 -42.00 -0.01 -2.59 3.45 0.24 0.04 -42.30 0.27 7.46 -5.11 -0.37 0.02 10.46 0.02 2.47 2.10 0.17 0.00 9.75 0.03 0.62 0.54 0.03 0.01 10.15 -0.00 1.03 0.91 0.06 0.00 9.75 -0.00 0.05 -0.75 -0.00 0.00 10.41 0.01 0.05 -0.75 -0.00 0.01 9.50 0.03 0.97 -13.70 -0.18 -3.19 6.95 -0.02 -7.43 1.82 6.76 -16.00 0.00 0.01 15.02 2.57 75.90 -26.50 0.02 0.04 4.93 -9.60 0.45 -26.00 0.00 0.02 3.82 6.12 -1.65 3.21 6.94 -0.02 -6.16 2.50 0.85 16.01 -0.00 -0.01 -6.89 -1.93 -85.69 26.50 0.02 -0.01 -6.05 3.86 -0.39 26.00 0.01 0.01 -2.08 6.58 1.22 
-0.15 92.69 -0.04 83.68 -0.30 0.79 -9.18 0.01 0.01 -14.37 1.99 -4.72 0.10 -42.00 0.01 -1.27 2.62 -1.36 0.06 -41.70 0.03 -8.74 -1.89 2.42 9.25 -0.01 -0.02 11.62 2.00 2.99 0.01 -42.00 -0.01 -2.61 3.47 0.25 0.04 -42.30 0.28 7.47 -5.12 -0.37 0.02 10.46 0.02 2.46 2.10 0.18 0.00 9.75 0.03 0.61 0.54 0.04 0.01 10.15 -0.00 1.03 0.91 0.06 0.01 9.75 -0.00 0.05 -0.75 -0.00 0.01 10.41 0.01 0.05 -0.75 -0.00 0.02 9.50 0.02 0.97 -13.71 -0.18 -3.19 6.95 -0.02 -7.42 1.82 6.75 -15.99 0.00 0.01 15.02 2.58 75.91 -26.50 0.01 0.04 4.94 -9.61 0.46 -26.00 0.01 0.02 3.82 6.11 -1.64 3.21 6.94 -0.01 -6.15 2.50 0.85 16.01 -0.00 -0.01 -6.92 -1.93 -85.68 26.50 0.02 -0.01 -6.03 3.86 -0.39 26.00 0.02 0.01 -2.06 6.58 1.22 
-0.15 92.69 -0.04 83.69 -0.31 0.79 -9.19 0.01 0.02 -14.41 2.03 -4.73 0.10 -42.00 0.02 -1.24 2.58 -1.35 0.07 -41.70 0.03 -8.76 -1.88 2.43 9.25 -0.01 -0.02 11.60 2.01 3.00 0.01 -42.00 -0.01 -2.60 3.48 0.24 0.04 -42.30 0.28 7.47 -5.12 -0.37 0.02 10.46 0.02 2.45 2.10 0.18 0.00 9.75 0.03 0.61 0.54 0.04 0.01 10.15 -0.00 1.02 0.91 0.06 0.01 9.75 0.00 -0.01 -0.80 -0.03 0.01 10.41 0.01 -0.01 -0.80 -0.03 -0.06 9.50 0.14 -0.01 -14.57 -0.51 -3.19 6.95 -0.02 -7.35 1.89 6.78 -15.99 0.01 0.01 15.02 2.58 75.90 -26.50 0.01 0.04 4.93 -9.62 0.47 -26.00 0.00 0.02 3.82 6.12 -1.64 3.21 6.94 -0.01 -6.08 2.57 0.86 16.01 -0.00 -0.01 -6.91 -1.91 -85.69 26.50 0.02 -0.01 -6.02 3.86 -0.38 26.00 0.02 0.01 -2.06 6.60 1.21 
-0.16 92.68 -0.04 83.69 -0.32 0.79 -9.19 0.01 0.00 -14.33 1.99 -4.73 0.09 -42.00 0.00 -1.31 2.65 -1.36 0.08 -41.70 0.03 -8.75 -1.88 2.43 9.25 -0.01 -0.03 11.59 2.01 3.00 0.01 -42.00 -0.01 -2.60 3.48 0.23 0.04 -42.30 0.27 7.49 -5.12 -0.36 0.02 10.46 0.03 2.45 2.10 0.18 0.00 9.75 0.03 0.61 0.54 0.04 0.01 10.15 -0.00 1.02 0.91 0.06 0.01 9.75 0.00 -0.01 -0.80 -0.03 0.01 10.41 0.01 -0.01 -0.81 -0.03 -0.05 9.50 0.13 -0.05 -14.61 -0.53 -3.19 6.95 -0.02 -7.34 1.89 6.78 -15.99 0.01 0.02 15.05 2.60 75.90 -26.50 0.01 0.04 4.94 -9.65 0.47 -26.00 -0.00 0.02 3.82 6.13 -1.63 3.21 6.94 -0.01 -6.07 2.56 0.86 16.01 -0.00 -0.00 -6.90 -1.90 -85.69 26.50 0.02 -0.01 -6.02 3.87 -0.37 26.00 0.01 0.01 -2.05 6.59 1.21 
-0.16 92.68 -0.03 83.69 -0.33 0.80 -9.18 0.01 0.02 -14.40 2.03 -4.77 0.10 -42.00 0.02 -1.24 2.60 -1.33 0.09 -41.69 0.03 -8.76 -1.88 2.43 9.24 -0.01 -0.03 11.58 2.01 3.00 0.01 -42.00 -0.00 -2.59 3.49 0.23 0.04 -42.30 0.28 7.52 -5.13 -0.37 0.02 10.46 0.03 2.44 2.11 0.18 0.00 9.75 0.03 0.61 0.54 0.04 0.01 10.15 -0.00 1.02 0.91 0.06 0.01 9.75 0.00 -0.01 -0.80 -0.03 0.01 10.41 0.00 -0.01 -0.81 -0.03 -0.05 9.50 0.12 -0.07 -14.65 -0.56 -3.19 6.95 -0.02 -7.32 1.89 6.79 -15.99 0.01 0.02 15.06 2.60 75.89 -26.50 0.00 0.04 4.92 -9.65 0.52 -26.00 -0.01 0.02 3.82 6.13 -1.68 3.21 6.94 -0.02 -6.06 2.56 0.87 16.01 -0.00 -0.00 -6.87 -1.88 -85.70 26.50 0.01 -0.01 -6.01 3.88 -0.37 26.00 0.01 0.01 -2.05 6.59 1.21 
-0.16 92.68 -0.03 83.70 -0.32 0.79 -9.19 0.01 0.00 -14.37 1.98 -4.73 0.10 -42.00 0.00 -1.28 2.66 -1.36 0.09 -41.70 0.02 -8.75 -1.89 2.45 9.24 -0.01 -0.02 11.56 2.01 3.02 0.01 -42.00 -0.00 -2.57 3.49 0.22 0.05 -42.30 0.28 7.52 -5.12 -0.37 0.01 10.46 0.03 2.43 2.11 0.19 0.00 9.75 0.03 0.61 0.54 0.04 0.01 10.15 -0.00 1.01 0.91 0.07 0.01 9.75 0.00 -0.01 -0.81 -0.03 0.01 10.41 0.00 -0.01 -0.81 -0.03 -0.05 9.50 0.11 -0.06 -14.69 -0.60 -3.19 6.95 -0.01 -7.31 1.93 6.80 -16.00 0.01 0.02 15.05 2.57 75.88 -26.50 0.00 0.04 4.92 -9.66 0.53 -26.00 -0.01 0.02 3.82 6.15 -1.70 3.21 6.94 -0.02 -6.07 2.56 0.89 16.01 -0.01 -0.01 -6.84 -1.88 -85.71 26.50 0.01 -0.01 -6.01 3.89 -0.38 26.00 0.01 0.01 -2.06 6.57 1.22 
-0.16 92.68 -0.03 83.69 -0.32 0.79 -9.19 0.01 0.01 -14.40 2.00 -4.75 0.10 -42.00 0.01 -1.24 2.64 -1.36 0.10 -41.69 0.03 -8.77 -1.89 2.46 9.24 -0.01 -0.02 11.57 2.02 3.00 0.02 -42.00 -0.00 -2.57 3.48 0.22 0.05 -42.30 0.28 7.52 -5.12 -0.36 0.02 10.46 0.03 2.43 2.10 0.18 0.00 9.75 0.03 0.61 0.54 0.04 0.01 10.15 -0.00 1.02 0.91 0.07 0.01 9.75 0.00 -0.01 -0.81 -0.03 0.02 10.41 -0.00 -0.01 -0.81 -0.03 -0.04 9.50 0.09 -0.05 -14.68 -0.60 -3.19 6.95 -0.01 -7.30 1.95 6.79 -16.00 0.01 0.03 15.03 2.55 75.90 -26.50 0.00 0.04 4.92 -9.65 0.52 -26.00 -0.02 0.02 3.82 6.16 -1.71 3.21 6.94 -0.02 -6.07 2.58 0.89 16.02 -0.01 -0.00 -6.81 -1.85 -85.76 26.50 0.02 0.00 -6.02 3.87 -0.33 26.00 0.01 0.01 -2.06 6.58 1.23 
